<svg id="Layer_1" data-name="Layer 1" xmlns="http://www.w3.org/2000/svg" viewBox="0 0 500 500"><defs><style>.cls-1{fill:#34ad6a;}.cls-2{fill:#fff;}.cls-3{fill:#fdc758;}</style></defs><rect class="cls-1" width="500" height="500" rx="250"/><path class="cls-2" d="M46,206q-13.55,0-21.7-8.93t-8.16-23.24q0-15.37,8.31-24.53t22.62-9.15q13.2,0,21.26,8.88t8.07,23.24q0,15.6-8.27,24.66T46,206Zm.54-59.1a20.57,20.57,0,0,0-16.31,7.24q-6.27,7.24-6.27,19t6.11,19A19.93,19.93,0,0,0,46,199.27q10.49,0,16.53-6.84t6.05-19.16q0-12.61-5.87-19.5T46.58,146.88Z"/><path class="cls-2" d="M125.76,204.91h-7.29V179q0-14.47-10.57-14.48a11.49,11.49,0,0,0-9.05,4.11A15.25,15.25,0,0,0,95.28,179v25.95H88v-45.5h7.29V167h.17q5.16-8.61,14.93-8.62,7.47,0,11.42,4.83t4,13.93Z"/><path class="cls-2" d="M176.06,184H143.93q.18,7.61,4.09,11.73t10.75,4.14a22.32,22.32,0,0,0,14.13-5.07v6.84Q166.9,206,157,206q-9.64,0-15.15-6.2t-5.51-17.44q0-10.62,6-17.31a19.3,19.3,0,0,1,14.95-6.69q8.93,0,13.82,5.78t4.89,16Zm-7.47-6.17q0-6.31-3-9.82a10.38,10.38,0,0,0-8.33-3.51,11.81,11.81,0,0,0-8.76,3.68,16.74,16.74,0,0,0-4.44,9.65Z"/><path class="cls-2" d="M276.61,204.91h-7.29V178.78q0-7.54-2.33-10.93c-1.55-2.25-4.17-3.37-7.84-3.37a9.7,9.7,0,0,0-7.93,4.26A16.32,16.32,0,0,0,248,179v25.95h-7.29v-27q0-13.43-10.35-13.42a9.59,9.59,0,0,0-7.91,4q-3.1,4-3.11,10.46v25.95H212v-45.5h7.29v7.2h.18q4.84-8.27,14.13-8.27a13.13,13.13,0,0,1,12.88,9.42q5.07-9.42,15.11-9.42,15,0,15,18.53Z"/><path class="cls-2" d="M323,204.91h-7.28V197.8h-.18q-4.75,8.17-14,8.18-6.8,0-10.64-3.6a12.48,12.48,0,0,1-3.84-9.55q0-12.77,15-14.85l13.64-1.91q0-11.59-9.38-11.59a22.35,22.35,0,0,0-14.84,5.6v-7.47a28.23,28.23,0,0,1,15.46-4.27q16.05,0,16,17Zm-7.28-23-11,1.52a17.79,17.79,0,0,0-7.64,2.51q-2.58,1.8-2.58,6.37a7,7,0,0,0,2.38,5.45,9.2,9.2,0,0,0,6.33,2.11,11.7,11.7,0,0,0,8.95-3.8,13.57,13.57,0,0,0,3.54-9.62Z"/><path class="cls-2" d="M360.41,166.79a8.89,8.89,0,0,0-5.51-1.47q-4.66,0-7.8,4.4t-3.13,12v23.19h-7.29v-45.5H344v9.38h.18a15.92,15.92,0,0,1,4.75-7.49,10.88,10.88,0,0,1,7.16-2.69,12,12,0,0,1,4.35.62Z"/><path class="cls-2" d="M406.09,204.91H395.87l-20.08-21.86h-.18v21.86h-7.29V137.55h7.29v42.7h.18l19.1-20.84h9.56l-21.11,22Z"/><path class="cls-2" d="M448.3,184H416.18c.11,5.07,1.48,9,4.08,11.73s6.19,4.14,10.76,4.14a22.36,22.36,0,0,0,14.13-5.07v6.84q-6,4.37-15.87,4.36-9.63,0-15.15-6.2t-5.51-17.44q0-10.62,6-17.31a19.31,19.31,0,0,1,14.95-6.69q8.94,0,13.82,5.78t4.89,16Zm-7.46-6.17q0-6.31-3-9.82a10.36,10.36,0,0,0-8.33-3.51,11.78,11.78,0,0,0-8.75,3.68,16.81,16.81,0,0,0-4.45,9.65Z"/><path class="cls-2" d="M480.43,204.47a14.17,14.17,0,0,1-6.8,1.42q-12,0-11.95-13.33V165.63h-7.82v-6.22h7.82V148.3L469,146v13.46h11.47v6.22H469v25.64q0,4.57,1.56,6.53t5.15,2a7.73,7.73,0,0,0,4.76-1.51Z"/><path class="cls-3" d="M47.45,296.65a13.17,13.17,0,0,1-4.19-.67,9.68,9.68,0,0,1-3.63-2.13,10.6,10.6,0,0,1-2.54-3.68,13.68,13.68,0,0,1-1-5.41V272.68h8.2v12c0,1.69.43,2.87,1.3,3.53a7.16,7.16,0,0,0,4.23,1H71.93V246.36h8.21v42.85h7.24v7.44Zm3.12-23.53v-5h3.37a6,6,0,0,1-1.08-3.31,6.33,6.33,0,0,1,.63-2.73,8.66,8.66,0,0,1,1.69-2.38A8.32,8.32,0,0,1,57.66,258a7.4,7.4,0,0,1,3-.63h4.58v5.53H61.89a3,3,0,0,0-2.23.73,2.55,2.55,0,0,0-.7,1.81,2.79,2.79,0,0,0,.7,1.88,3.5,3.5,0,0,0,2.67.79h3.44v5Z"/><path class="cls-3" d="M85.38,302.05a4.7,4.7,0,0,1,6.67,0,4.67,4.67,0,0,1,1.37,3.37,4.47,4.47,0,0,1-1.37,3.28,4.74,4.74,0,0,1-6.67,0A4.43,4.43,0,0,1,84,305.42,4.63,4.63,0,0,1,85.38,302.05Zm3.52-12.84a7.16,7.16,0,0,0,4.23-1,4.18,4.18,0,0,0,1.31-3.53v-12h8.2v12.08a13.86,13.86,0,0,1-1,5.41,10.62,10.62,0,0,1-2.55,3.68A9.72,9.72,0,0,1,95.52,296a13.28,13.28,0,0,1-4.2.67H86.23v-7.44Zm7,12.84a4.7,4.7,0,0,1,6.67,0,4.63,4.63,0,0,1,1.37,3.37,4.43,4.43,0,0,1-1.37,3.28,4.74,4.74,0,0,1-6.67,0,4.47,4.47,0,0,1-1.37-3.28A4.67,4.67,0,0,1,95.87,302.05Z"/><path class="cls-3" d="M125.08,289.21v-6.87a5.63,5.63,0,0,0-.48-2.29,6.33,6.33,0,0,0-1.27-1.9,5.35,5.35,0,0,0-1.87-1.27,5.92,5.92,0,0,0-2.29-.45h-7.12l-.07-7h7.7a13.78,13.78,0,0,1,5.37,1.05,14.25,14.25,0,0,1,4.42,2.86,13,13,0,0,1,4.07,9.57v6.29h6.74l.06,7.44H107.72v-7.44Z"/><path class="cls-3" d="M138.33,302.05a4.71,4.71,0,0,1,6.68,0,4.67,4.67,0,0,1,1.37,3.37A4.47,4.47,0,0,1,145,308.7a4.76,4.76,0,0,1-6.68,0,4.46,4.46,0,0,1-1.36-3.28A4.67,4.67,0,0,1,138.33,302.05Zm3.53-12.84a7.16,7.16,0,0,0,4.23-1c.87-.66,1.3-1.84,1.3-3.53v-12h8.21v12.08a13.67,13.67,0,0,1-1,5.41,10.47,10.47,0,0,1-2.54,3.68,9.72,9.72,0,0,1-3.62,2.13,13.28,13.28,0,0,1-4.2.67h-5.09v-7.44Zm7,12.84a4.7,4.7,0,0,1,6.67,0,4.67,4.67,0,0,1,1.37,3.37,4.47,4.47,0,0,1-1.37,3.28,4.74,4.74,0,0,1-6.67,0,4.43,4.43,0,0,1-1.37-3.28A4.63,4.63,0,0,1,148.83,302.05Z"/><path class="cls-3" d="M160.81,311.53v-3.88h2.61a4.79,4.79,0,0,1-.83-2.54,5.08,5.08,0,0,1,.48-2.13,5.85,5.85,0,0,1,1.3-1.85,6.57,6.57,0,0,1,1.91-1.27,5.56,5.56,0,0,1,2.29-.48h3.49v4.26h-2.54a2.28,2.28,0,0,0-1.75.58,2,2,0,0,0-.54,1.4,2.09,2.09,0,0,0,.54,1.43,2.75,2.75,0,0,0,2.07.6h2.67v3.88Zm2.41-65.17h8.21v50.29h-8.21Z"/><path class="cls-3" d="M214.28,302.15a5.87,5.87,0,0,0,1.87-1.3,6.6,6.6,0,0,0,1.28-1.91,5.91,5.91,0,0,0,.47-2.35V272.68h8.46v11.7a5.39,5.39,0,0,0,1,3.69q1.05,1.14,3.78,1.14h3.63v7.44h-1.21a12.28,12.28,0,0,1-4.1-.6,8,8,0,0,1-3.15-2.2V296a13.72,13.72,0,0,1-1.08,5.41,14,14,0,0,1-3,4.45,15,15,0,0,1-4.42,3.05,12.82,12.82,0,0,1-5.37,1.15h-7.89a12.89,12.89,0,0,1-5.37-1.15,15,15,0,0,1-4.42-3.05,14,14,0,0,1-3-4.45,13.72,13.72,0,0,1-1.08-5.41V279.1h8.46v17.49a5.74,5.74,0,0,0,.48,2.35,6.38,6.38,0,0,0,1.27,1.91,5.87,5.87,0,0,0,1.87,1.3,5.6,5.6,0,0,0,2.29.48H212A5.6,5.6,0,0,0,214.28,302.15Zm-9.19-40.53a4.68,4.68,0,0,1,6.68,0,4.63,4.63,0,0,1,1.36,3.37,4.46,4.46,0,0,1-1.36,3.27,4.76,4.76,0,0,1-6.68,0,4.47,4.47,0,0,1-1.37-3.27A4.64,4.64,0,0,1,205.09,261.62Z"/><path class="cls-3" d="M235.83,289.21a6.91,6.91,0,0,0,4.19-1,4.2,4.2,0,0,0,1.34-3.56V272.68h8.39v11.7a5.39,5.39,0,0,0,1.05,3.69q1,1.14,3.78,1.14h3.63v7.44H257a10.74,10.74,0,0,1-5.12-1.08,11.23,11.23,0,0,1-3.84-3.94,8,8,0,0,1-3.63,3.78,12.2,12.2,0,0,1-5.66,1.24h-5.08v-7.44Zm1.36,12.84a4.71,4.71,0,0,1,6.68,0,4.67,4.67,0,0,1,1.37,3.37,4.47,4.47,0,0,1-1.37,3.28,4.76,4.76,0,0,1-6.68,0,4.46,4.46,0,0,1-1.36-3.28A4.67,4.67,0,0,1,237.19,302.05Zm10.5,0a4.7,4.7,0,0,1,6.67,0,4.67,4.67,0,0,1,1.37,3.37,4.47,4.47,0,0,1-1.37,3.28,4.74,4.74,0,0,1-6.67,0,4.43,4.43,0,0,1-1.37-3.28A4.63,4.63,0,0,1,247.69,302.05Z"/><path class="cls-3" d="M259.73,289.21a7.16,7.16,0,0,0,4.23-1c.87-.66,1.3-1.84,1.3-3.53v-12h8.21v12.08a13.67,13.67,0,0,1-1,5.41,10.47,10.47,0,0,1-2.54,3.68,9.72,9.72,0,0,1-3.62,2.13,13.28,13.28,0,0,1-4.2.67h-5.09v-7.44Zm.54,12.78a4.68,4.68,0,0,1,6.68,0,4.66,4.66,0,0,1,1.37,3.37,4.66,4.66,0,0,1-4.71,4.64,4.56,4.56,0,0,1-3.34-1.36,4.49,4.49,0,0,1-1.36-3.28A4.65,4.65,0,0,1,260.27,302Z"/><path class="cls-3" d="M301.73,308.92a14.85,14.85,0,0,1-4.42-3.05,14,14,0,0,1-3-4.45,13.72,13.72,0,0,1-1.08-5.41V279.1h8.45v17.49a5.74,5.74,0,0,0,.48,2.35,6.57,6.57,0,0,0,1.27,1.91,5.91,5.91,0,0,0,1.88,1.3,5.56,5.56,0,0,0,2.29.48h18a5.36,5.36,0,0,0,2.26-.48,6.35,6.35,0,0,0,1.87-1.3,6.14,6.14,0,0,0,1.31-1.91,5.56,5.56,0,0,0,.47-2.29h-5.84a13.5,13.5,0,0,1-5.38-1.08,14.37,14.37,0,0,1-4.39-2.93,13.85,13.85,0,0,1-3-4.35,13,13,0,0,1-1.12-5.37,12.82,12.82,0,0,1,1.18-5.41,14.63,14.63,0,0,1,3.15-4.45,15.55,15.55,0,0,1,4.54-3.05,13.31,13.31,0,0,1,5.44-1.15,12.82,12.82,0,0,1,5.37,1.15,14.85,14.85,0,0,1,4.42,3.05,14,14,0,0,1,3,4.45,13.72,13.72,0,0,1,1.08,5.41v13.73a13.33,13.33,0,0,1-1.27,5.15,14.79,14.79,0,0,1-3,4.26,14.41,14.41,0,0,1-4.36,2.93,12.9,12.9,0,0,1-5.21,1.08h-19A12.82,12.82,0,0,1,301.73,308.92Zm15.64-52.33a4.67,4.67,0,0,1,6.67,0,4.63,4.63,0,0,1,1.37,3.37,4.45,4.45,0,0,1-1.37,3.28,4.71,4.71,0,0,1-8-3.28A4.67,4.67,0,0,1,317.37,256.59Zm2.76,28.2A7.34,7.34,0,0,0,321.4,287a7.43,7.43,0,0,0,1.88,1.59,4.58,4.58,0,0,0,2.32.6h5.91v-6.87a5.62,5.62,0,0,0-.47-2.29,6.52,6.52,0,0,0-1.27-1.9,5.39,5.39,0,0,0-1.88-1.27,5.88,5.88,0,0,0-2.29-.45,5.86,5.86,0,0,0-5.91,5.91A7.33,7.33,0,0,0,320.13,284.79Zm7.73-28.2a4.67,4.67,0,0,1,6.67,0A4.63,4.63,0,0,1,335.9,260a4.45,4.45,0,0,1-1.37,3.28,4.71,4.71,0,0,1-8-3.28A4.67,4.67,0,0,1,327.86,256.59Z"/><path class="cls-3" d="M346.23,277.51a14.63,14.63,0,0,1,3.15-4.45,15.42,15.42,0,0,1,4.54-3.05,13.31,13.31,0,0,1,5.44-1.15,12.85,12.85,0,0,1,5.37,1.15,15,15,0,0,1,4.42,3.05,14,14,0,0,1,3,4.45,13.72,13.72,0,0,1,1.08,5.41v6.29h5.21v7.44H373a16.83,16.83,0,0,1-1.81,6,11.59,11.59,0,0,1-3.78,4.13,17.45,17.45,0,0,1-6,2.41,38.52,38.52,0,0,1-8.33.8h-2V302.5h1.46a41.92,41.92,0,0,0,5.6-.32,12.55,12.55,0,0,0,3.72-1,4.93,4.93,0,0,0,2.1-1.82,5.62,5.62,0,0,0,.73-2.7h-5.79a13.42,13.42,0,0,1-5.37-1.08,14.25,14.25,0,0,1-4.39-2.93,14,14,0,0,1-3-4.35,13.14,13.14,0,0,1-1.11-5.37A12.67,12.67,0,0,1,346.23,277.51Zm7.15,7.28a7.34,7.34,0,0,0,1.27,2.23,7.27,7.27,0,0,0,1.88,1.59,4.58,4.58,0,0,0,2.32.6h5.91v-6.87a5.79,5.79,0,0,0-.47-2.29,6.55,6.55,0,0,0-1.28-1.9,5.35,5.35,0,0,0-1.87-1.27,5.92,5.92,0,0,0-2.29-.45,5.86,5.86,0,0,0-5.91,5.91A7.09,7.09,0,0,0,353.38,284.79Z"/><path class="cls-3" d="M421.16,288.19c.89-.67,1.33-1.86,1.33-3.56V272.68h8.39v11.7a5.39,5.39,0,0,0,1.05,3.69c.7.76,2,1.14,3.79,1.14h3.62v7.44h-1.21a10.76,10.76,0,0,1-5.12-1.08,11.23,11.23,0,0,1-3.84-3.94,8,8,0,0,1-3.63,3.78,12.17,12.17,0,0,1-5.66,1.24h-.5a10.71,10.71,0,0,1-5.12-1.08,11.16,11.16,0,0,1-3.85-3.94,7.91,7.91,0,0,1-3.75,3.78,13,13,0,0,1-5.79,1.24,11.51,11.51,0,0,1-5.24-1.08,10.77,10.77,0,0,1-4-3.94,8,8,0,0,1-3.62,3.78,12.2,12.2,0,0,1-5.66,1.24h-5.09v-7.44h2.17a6.93,6.93,0,0,0,4.19-1,4.2,4.2,0,0,0,1.34-3.56V272.68h8.39v11.7a5.39,5.39,0,0,0,1.05,3.69q1.05,1.14,3.78,1.14a6.94,6.94,0,0,0,4.2-1c.89-.67,1.33-1.86,1.33-3.56V272.68h8.4v11.7a5.39,5.39,0,0,0,1.05,3.69q1.05,1.14,3.78,1.14A6.94,6.94,0,0,0,421.16,288.19Z"/><path class="cls-3" d="M439.65,289.21a7.16,7.16,0,0,0,4.23-1c.87-.66,1.3-1.84,1.3-3.53V246.36h8.21v38.4a13.67,13.67,0,0,1-1,5.41,10.47,10.47,0,0,1-2.54,3.68,9.68,9.68,0,0,1-3.63,2.13,13.17,13.17,0,0,1-4.19.67h-3.88v-7.44Z"/><path class="cls-3" d="M461,246.36h8.21v50.29H461Z"/></svg>